<svg xmlns="http://www.w3.org/2000/svg" viewBox="0 0 100 100"><defs><linearGradient id="a" x1="200" x2="296.7" y1="214.3" y2="307.6" gradientTransform="translate(-200 -213)" gradientUnits="userSpaceOnUse"><stop offset="0" stop-color="#62a0ea"/><stop offset="1" stop-color="#1a5fb4"/></linearGradient></defs><path fill="url(#a)" d="M48.3 2.3a6 6 0 0 0-1.9 8.4C56.5 26.4 59 38.2 58 48.6c-4.2 19.8-13.3 23.8-21.2 23.8s-5.7-12.8.1-16.5c3.5-2.2 8-3.6 11.4-3.6a6.1 6.1 0 1 0 0-12.3q-6.1.1-11.6 2.3c.7-3.5 1-7.3 0-11.4q-2-9.1-13-17.7a6 6 0 0 0-8.6 1 6 6 0 0 0 1 8.6c6 4.7 8 8.1 8.7 11 .7 2.8.1 5.8-1.2 10-1.8 5.6-3.8 10.6-4.7 15.4q-.5 3.8-.5 7c-4.3-4.2-6-9.7-6-17.8a6.1 6.1 0 0 0-12.3 0C0 59.4 3.2 70 11.9 77c7.8 7.5 27.8 4.7 27.8 16.7 0 3.4 5 5 8.3 5 3.5 0 7.9-2.3 7.9-5 0-13.6 14.3-21.9 38-21.8a6.1 6.1 0 1 0 0-12.3l-4.8.2q4-9.3 3.6-20.5a6.1 6.1 0 0 0-12.3.4c.3 9.7 0 18.3-7.2 22.9-2 1.3-4.5 2.4-6.7 2.4A62 62 0 0 0 70 39c-.6-5-1.4-10.6.5-14.8q2.7-5.3 11-5.2a6.1 6.1 0 1 0 0-12.2c-8.2 0-14.5 4.3-18 9.6q-2.8-6-6.9-12.3a6 6 0 0 0-8.4-1.8"/><path fill="#fff" d="M62 78v-1.3l.2-1.2.2-1.3.3-1.2.4-1.2.5-1.1.6-1.2.7-1 .8-1 .8-1 1-.9 1-.8 1-.7 1-.7 1.2-.5 1.2-.5 1.3-.4 1.2-.2 1.3-.2h3.9l1.3.3 1.2.3 1.2.5 1.2.5 1.2.6 1.1.7 1 .8 1 .9 1 1 .8 1 .7 1 .7 1.2.6 1.2.4 1.2.4 1.3.3 1.3.2 1.3V78H93v-1.2l-.1-1.2-.2-1.1-.3-1.2-.4-1.1-.5-1L91 70l-.7-1-.7-1-.8-.8-.9-.8-.9-.8-1-.7-1-.6-1.1-.5-1.1-.5-1.2-.3-1.2-.3-1.2-.2h-2.4l-1.2.1-1.2.2-1.2.3-1.2.4-1.1.5-1.1.6-1 .7-1 .7-1 .9-.8.8-.8 1-.7 1-.6 1.1-.6 1.1-.4 1.2-.4 1.2-.3 1.2-.1 1.2zm32 0v1.3l-.2 1.2-.2 1.3-.3 1.2-.4 1.2-.5 1.1-.6 1.2-.7 1-.8 1-.8 1-1 .9-1 .8-1 .7-1 .7-1.2.5-1.2.5-1.3.4-1.2.2-1.3.2h-3.9l-1.3-.3-1.2-.3-1.2-.5-1.2-.5-1.2-.6-1.1-.7-1-.8-1-.9-1-1-.8-1-.7-1-.7-1.2-.6-1.2-.4-1.2-.4-1.3-.3-1.2-.2-1.4V78H63v1.2l.1 1.2.2 1.1.3 1.2.4 1.1.5 1L65 86l.7 1 .7 1 .8.8.9.8.9.8 1 .7 1 .6 1.1.5 1.1.5 1.2.3 1.2.3 1.2.2h2.4l1.2-.1 1.2-.2 1.2-.3 1.2-.4 1-.5 1.1-.6 1-.7 1-.7 1-.9.8-.8.8-1 .7-1 .6-1.1.6-1.1.4-1.2.4-1.2.3-1.2.1-1.2z"/><path fill="#fff" d="m94 80 2.5-4h-5zm-32-3.5 2.5 4h-5z"/></svg>